Coordinates
version=1
nRows=19
nColumns=24
inDegrees=yes

Units are S.I. units (second, meters, Newtons, ...)
Angles are in degrees.

endheader
time	pelvis_tilt	pelvis_list	pelvis_rotation	pelvis_tx	pelvis_ty	pelvis_tz	hip_flexion_r	hip_adduction_r	hip_rotation_r	knee_angle_r	ankle_angle_r	subtalar_angle_r	mtp_angle_r	hip_flexion_l	hip_adduction_l	hip_rotation_l	knee_angle_l	ankle_angle_l	subtalar_angle_l	mtp_angle_l	lumbar_extension	lumbar_bending	lumbar_rotation
      1.04983333	     -1.58824204	     -0.64347635	     -1.37238063	     -0.15747301	      0.98222174	      0.33306814	    -17.70196042	      3.05546279	     -2.72711505	     -2.82169861	     14.84432670	     -3.21581887	      1.03402938	     23.42477295	      0.44156013	     -0.78277052	      4.25710764	     -2.35474735	     -3.00122047	      1.26590095	    -11.96875219	      4.95902486	     10.07563875
      1.05400000	     -1.53635033	     -0.50330471	     -1.41257755	     -0.15151004	      0.98150747	      0.33280367	    -17.83228453	      2.83244867	     -2.92230262	     -3.42409591	     15.07385274	     -2.83687852	      1.16264045	     23.35750934	      0.64895014	     -0.64422516	      4.20883770	     -2.34360622	     -3.15258105	      1.30255755	    -11.99290044	      4.77473795	     10.07996899
      1.05816667	     -1.49927634	     -0.35463658	     -1.44597912	     -0.14552514	      0.98081121	      0.33252722	    -17.92637643	      2.59969963	     -3.11306137	     -4.07088621	     15.29455526	     -2.47074013	      1.30973941	     23.31381478	      0.86594367	     -0.46944450	      4.07120999	     -2.38797317	     -3.39061498	      1.34802772	    -11.99655641	      4.57480994	     10.06786879
      1.06233333	     -1.45003713	     -0.17535391	     -1.47407458	     -0.13950487	      0.98017710	      0.33223133	    -18.02264947	      2.33309859	     -3.30200955	     -4.73971569	     15.49083057	     -2.11932997	      1.47281853	     23.25709771	      1.11695896	     -0.27554732	      3.86199401	     -2.49253993	     -3.69806120	      1.40265519	    -12.02195232	      4.34462538	     10.04338070
      1.06650000	     -1.41191095	      0.01309022	     -1.49759548	     -0.13344996	      0.97956951	      0.33193557	    -18.08943376	      2.05696222	     -3.48208267	     -5.44685639	     15.66708761	     -1.79373503	      1.64988403	     23.21576383	      1.37688284	     -0.05680914	      3.58014037	     -2.66369773	     -4.08728591	      1.46411598	    -12.01982329	      4.10257135	     10.00595889
      1.07066667	     -1.36820358	      0.21905480	     -1.51354159	     -0.12736354	      0.97900729	      0.33161372	    -18.14745550	      1.76059626	     -3.66872683	     -6.18466607	     15.81898303	     -1.47708617	      1.84801527	     23.17067175	      1.65794922	      0.18117680	      3.23463186	     -2.89622471	     -4.54978782	      1.53568776	    -12.02511776	      3.84277883	      9.95650662
      1.07483333	     -1.33855524	      0.43072010	     -1.52322047	     -0.12126114	      0.97846775	      0.33127600	    -18.17716522	      1.45929113	     -3.83177709	     -6.94833876	     15.92386889	     -1.20709196	      2.07018814	     23.14644358	      1.94687377	      0.44042523	      2.82741261	     -3.18863247	     -5.07277226	      1.61594134	    -12.01193381	      3.57903015	      9.89678713
      1.07900000	     -1.31520152	      0.65521279	     -1.52767084	     -0.11512772	      0.97796295	      0.33092570	    -18.18277380	      1.14507655	     -3.98926110	     -7.74807997	     15.99453720	     -0.96354523	      2.32069695	     23.13143190	      2.25104333	      0.70408824	      2.36778235	     -3.54233575	     -5.65742415	      1.70385708	    -11.98427509	      3.29820883	      9.82803627
      1.08316667	     -1.29330928	      0.88855111	     -1.52662692	     -0.10897147	      0.97749828	      0.33057148	    -18.17594424	      0.82385153	     -4.13033274	     -8.56842342	     16.01717128	     -0.76835884	      2.59238198	     23.12354976	      2.56588891	      0.97008075	      1.85732185	     -3.95606271	     -6.28333019	      1.79326234	    -11.95410674	      3.00785259	      9.74499596
      1.08733333	     -1.28741814	      1.12381330	     -1.51777825	     -0.10280386	      0.97705609	      0.33018644	    -18.13336443	      0.50214235	     -4.25426909	     -9.42392351	     15.99043192	     -0.61407545	      2.90210461	     23.13837447	      2.88703125	      1.24962708	      1.30242299	     -4.41430882	     -6.96035683	      1.88624098	    -11.90494775	      2.71579879	      9.65477784
      1.09150000	     -1.27980223	      1.36972211	     -1.50532627	     -0.09661167	      0.97666169	      0.32980194	    -18.07928863	      0.17219840	     -4.36409388	    -10.30383033	     15.91241870	     -0.50813855	      3.25227469	     23.15166775	      3.21952505	      1.53069264	      0.71709196	     -4.92678181	     -7.68072512	      1.97753300	    -11.85354457	      2.41403676	      9.55383782
      1.09566667	     -1.28263505	      1.61083469	     -1.48672994	     -0.09041556	      0.97630040	      0.32941237	    -17.99730063	     -0.14791261	     -4.44742678	    -11.21228046	     15.77375187	     -0.46242141	      3.63914368	     23.18653312	      3.54958225	      1.79460664	      0.08935608	     -5.46457724	     -8.40231419	      2.06240531	    -11.78279216	      2.11112527	      9.44733909
      1.09983333	     -1.27116882	      1.87184272	     -1.44942544	     -0.08417241	      0.97600439	      0.32900410	    -17.93571446	     -0.48013822	     -4.52637963	    -12.09467147	     15.44621412	     -0.58549562	      9.21735436	     23.20792650	      3.90607014	      2.05354550	     -0.56533865	     -6.01253449	     -9.10721515	      3.13440498	    -11.73476685	      1.78186476	      9.30132525
      1.10400000	     -1.30258787	      2.10935274	     -1.43169824	     -0.07797472	      0.97570356	      0.32860187	    -17.77687879	     -0.79258667	     -4.55716879	    -13.08250523	     15.20115532	     -0.63429373	      9.28331908	     23.28848472	      4.23182910	      2.27837138	     -1.26009877	     -6.57001771	     -9.80279670	      3.10215825	    -11.63473283	      1.48723985	      9.21554756
      1.10816667	     -1.32965132	      2.35740419	     -1.40776451	     -0.07175811	      0.97545959	      0.32819213	    -17.60754985	     -1.11111049	     -4.57448736	    -14.09329289	     14.88718232	     -0.73971345	      9.39742873	     23.36090423	      4.56986139	      2.50351166	     -1.96089579	     -7.15104614	    -10.51032649	      3.06420420	    -11.54392152	      1.18350477	      9.09018212
      1.11233333	     -1.35702972	      2.60237486	     -1.37546132	     -0.06554178	      0.97526132	      0.32776560	    -17.41534940	     -1.42175912	     -4.58630140	    -15.13932697	     14.50162278	     -0.88992172	      9.57787860	     23.43482976	      4.90945417	      2.74528997	     -2.67773121	     -7.70896658	    -11.23689899	      3.01406915	    -11.44949654	      0.87822938	      8.96532319
      1.11650000	     -1.38938510	      2.84700674	     -1.34389007	     -0.05932874	      0.97510500	      0.32733700	    -17.19168870	     -1.72938876	     -4.57871172	    -16.22532966	     14.05112076	     -1.08792164	      9.82362332	     23.51556899	      5.24819805	      2.97099745	     -3.40705386	     -8.24369090	    -11.93357719	      2.94938062	    -11.35274095	      0.57604700	      8.83401629
      1.12066667	     -1.42359653	      3.09055837	     -1.31219996	     -0.05312379	      0.97499363	      0.32690050	    -16.93725894	     -2.03447976	     -4.56271888	    -17.35467594	     13.52918961	     -1.32330140	     10.14313123	     23.60073295	      5.58616919	      3.18340263	     -4.15103569	     -8.73957484	    -12.60352166	      2.86618587	    -11.25667011	      0.27556523	      8.70380084
      1.12483333	     -1.41744735	      3.35515182	     -1.27319453	     -0.04689969	      0.97497630	      0.32643287	    -16.70617942	     -2.36538067	     -4.59416792	    -18.50080556	     12.84937186	     -1.62950848	     15.61112142	     23.64288231	      5.95277172	      3.37320343	     -4.91076524	     -9.10767334	    -13.20317721	      1.60009569	    -11.21373108	     -0.05586418	      8.54906569
